<svg width="100%" height="100%" viewBox="0 0 999 548" xmlns="http://www.w3.org/2000/svg">

<path style="fill:#727f7f" d="M242,435 l-129,0 0,-86 -85,0 0,-214 85,0 0,-86 129,0 0,86 514,0 0,-86 129,0 0,86 85,0 0,214 -85,0 0,86 -129,0 0,-86 -514,0 0,86z" />
<path style="fill:#879494" d="M242,402 l-128,0 0,-71 -86,0 0,-179 86,0 0,-71 128,0 0,71 514,0 0,-71 129,0 0,71 85,0 0,179 -85,0 0,71 -129,0 0,-71 -514,0 0,71z" />
<path style="fill:#9ea8a8" d="M242,370 l-128,0 0,-57 -86,0 0,-143 86,0 0,-57 128,0 0,57 514,0 0,-57 129,0 0,57 85,0 0,143 -85,0 0,57 -129,0 0,-57 -514,0 0,57z" />
<path style="fill:#b3bdbd" d="M242,338 l-128,0 0,-43 -86,0 0,-107 86,0 0,-43 128,0 0,43 514,0 0,-43 129,0 0,43 85,0 0,107 -85,0 0,43 -129,0 0,-43 -514,0 0,43z" />
<path style="fill:#c9d1d1" d="M242,305 l-128,0 0,-28 -86,0 0,-71 86,0 0,-29 128,0 0,29 514,0 0,-29 129,0 0,29 85,0 0,71 -85,0 0,28 -129,0 0,-28 -514,0 0,28z" />
<path style="fill:#dde5e5" d="M242,273 l-129,0 0,-14 -85,0 0,-35 85,0 0,-14 129,0 0,14 514,0 0,-14 129,0 0,14 85,0 0,35 -85,0 0,14 -129,0 0,-14 -514,0 0,14z" />
<path style="fill:none;stroke:#000;stroke-width:2" d="M242,435 l-129,0 0,-86 -85,0 0,-214 85,0 0,-86 129,0 0,86 514,0 0,-86 129,0 0,86 85,0 0,214 -85,0 0,86 -129,0 0,-86 -514,0 0,86" />
<path style="fill:none;stroke:#000;stroke-width:2" d="M113,349 l0,-214" />
<path style="fill:none;stroke:#000;stroke-width:2" d="M885,349 l0,-214" />
<path style="fill:#7a9999;stroke:#000;stroke-width:2" d="M242,91 l514,0 0,301 -514,0 0,-301z" />
<path style="fill:#bdcccc;stroke:#000;stroke-width:2" d="M242,113 l514,0 0,257 -514,0 0,-257z" />
<path style="fill:#033" d="M285,392 l85,64 258,0 85,-64 -428,0z" />
<path style="fill:#9bb2b2;stroke:#000;stroke-width:2" d="M713,92 l-85,-64 -258,0 -85,64 428,0z" />
<path style="fill:none;stroke:#fff;stroke-width:2" d="M349,92 l43,-43 214,0" />
<path style="fill:#597f7f;stroke:#000;stroke-width:2" d="M606,520 l0,-21 22,0 0,-107 42,0 0,107 22,0 0,21 -86,0z" />
<path style="fill:#597f7f;stroke:#000;stroke-width:2" d="M306,520 l0,-21 22,0 0,-107 42,0 0,107 22,0 0,21 -86,0z" />
<path style="fill:#597f7f" d="M242,113 l514,0 0,22 -514,0 0,-22z" />
<path style="fill:#324c4c" d="M285,113 l43,0 0,257 -43,0 0,-257z" />
<path style="fill:#324c4c" d="M349,113 l43,0 0,257 -43,0 0,-257z" />
<path style="fill:#324c4c" d="M413,113 l43,0 0,257 -43,0 0,-257z" />
<path style="fill:#324c4c" d="M478,113 l43,0 0,257 -43,0 0,-257z" />
<path style="fill:#324c4c" d="M542,113 l43,0 0,257 -43,0 0,-257z" />
<path style="fill:#324c4c" d="M606,113 l43,0 0,257 -43,0 0,-257z" />
<path style="fill:#324c4c" d="M670,113 l43,0 0,257 -43,0 0,-257z" />

</svg>
